<svg xmlns="http://www.w3.org/2000/svg" viewBox="0 0 64 64">
  <defs>
    <linearGradient id="body" x1="0" y1="0" x2="0" y2="1">
      <stop offset="0" stop-color="#f7d038" />
      <stop offset="1" stop-color="#e8a317" />
    </linearGradient>
    <linearGradient id="leaf" x1="0" y1="0" x2="0" y2="1">
      <stop offset="0" stop-color="#6ce9a6" />
      <stop offset="1" stop-color="#12b76a" />
    </linearGradient>
  </defs>
  <rect width="64" height="64" rx="16" fill="#0a0c0a" />
  <g transform="translate(8 4)">
    <ellipse cx="24" cy="42" rx="16" ry="20" fill="url(#body)" />
    <g stroke="#b9791a" stroke-width="1.6" fill="none" opacity="0.85" stroke-linecap="round">
      <path d="M10 35 L24 28 L38 35 M10 47 L24 40 L38 47 M13 57 L24 51 L35 57" />
      <path d="M17 32 L17 44 M31 32 L31 44 M24 40 L24 51 M11 42 L11 52 M37 42 L37 52" />
    </g>
    <g fill="url(#leaf)" stroke="#0a3d24" stroke-width="1">
      <path d="M24 2 C21 9 21 16 24 23 C27 16 27 9 24 2 Z" />
      <path d="M24 23 C18 20 13 16 9 11 C13 18 17 22 24 24 Z" />
      <path d="M24 23 C30 20 35 16 39 11 C35 18 31 22 24 24 Z" />
      <path d="M24 24 C16 23 10 22 5 19 C11 25 16 26 24 26 Z" />
      <path d="M24 24 C32 23 38 22 43 19 C37 25 32 26 24 26 Z" />
    </g>
  </g>
</svg>
